<?xml version="1.0" encoding="UTF-8" standalone="no" ?>
<!DOCTYPE svg PUBLIC "-//W3C//DTD SVG 1.1//EN" "http://www.w3.org/Graphics/SVG/1.1/DTD/svg11.dtd">
<svg xmlns="http://www.w3.org/2000/svg" xmlns:xlink="http://www.w3.org/1999/xlink" version="1.1" width="1280" height="1024" viewBox="0 0 1280 1024" xml:space="preserve">
<desc>Created with Fabric.js 5.3.0</desc>
<defs>
</defs>
<g transform="matrix(1 0 0 1 640 512)" id="background-logo"  >
<rect style="stroke: none; stroke-width: 0; stroke-dasharray: none; stroke-linecap: butt; stroke-dashoffset: 0; stroke-linejoin: miter; stroke-miterlimit: 4; fill: rgb(255,254,252); fill-rule: nonzero; opacity: 1;"  paint-order="stroke"  x="-640" y="-512" rx="0" ry="0" width="1280" height="1024" />
</g>
<g transform="matrix(2.160870800875452 0 0 2.160870800875452 652.1847279716145 483.6451284101586)" id="logo-logo"  >
<g style=""  paint-order="stroke"   >
		<g transform="matrix(2.396907323910925 0 0 2.396907323910925 0 -2.842171e-14)"  >
<linearGradient id="SVGID_109647" gradientUnits="userSpaceOnUse" gradientTransform="matrix(1 0 0 1 6.9503261812542e-7 8.767734499999996)"  x1="0" y1="0" x2="0" y2="82">
<stop offset="0%" style="stop-color:rgb(245,81,95);stop-opacity: 1"/>
<stop offset="100%" style="stop-color:rgb(159,4,27);stop-opacity: 1"/>
</linearGradient>
<path style="stroke: none; stroke-width: 1; stroke-dasharray: none; stroke-linecap: butt; stroke-dashoffset: 0; stroke-linejoin: miter; stroke-miterlimit: 4; fill: url(#SVGID_109647); fill-rule: nonzero; opacity: 1;"  paint-order="stroke"  transform=" translate(-50.00000093913129, -50.000001899999994)" d="M 99.9985733 35.1795082 C 100.15040590000001 20.5934143 88.17360690000001 8.7677345 73.5867996 8.7677345 C 63.279754600000004 8.7677345 54.3516922 14.6717243 50.00010300000001 23.2822075 C 45.64830780000001 14.6717243 36.72024150000001 8.767734499999998 26.41319850000001 8.767734499999998 C 11.826389300000011 8.767734499999998 -0.15030479999999002 20.5934143 0.001426700000010328 35.1795082 C 0.11345980000001032 45.9438896 5.58374310000001 70.6493835 46.64739610000001 91.2321625 L 46.64739610000001 82.1830597 C 39.019325300000006 78.4013596 32.499511700000006 74.1417465 27.271709500000007 69.4896622 C 26.413608600000007 68.7250748 26.042312700000007 67.6178437 26.177673400000007 66.55695349999999 C 12.702191400000007 54.085884199999995 11.660335600000007 42.58494569999999 11.630050700000007 39.70502859999999 C 11.592501700000007 36.11475379999999 12.519766800000006 32.680095699999995 14.266562500000006 29.65069969999999 C 14.244155900000006 27.67513279999999 15.063889500000005 24.99513829999999 15.959336300000006 23.55282599999999 C 17.317852000000006 21.364446699999988 19.428779600000006 21.06252109999999 21.141403200000006 22.125761099999988 C 22.854024900000006 23.18900119999999 23.519880300000008 25.214803799999988 22.161262500000007 27.403183099999985 C 21.165548300000008 29.006944799999985 18.75054550000001 31.229496099999984 16.856111500000004 31.887474199999986 C 15.609833700000005 34.26308839999999 14.953903200000005 36.91249099999999 14.982652600000005 39.67065059999999 C 15.009254400000005 42.260509599999985 15.970590500000005 52.499412699999986 28.208593300000004 63.90376669999999 C 29.360027200000005 63.42258459999999 30.731946900000004 63.594573999999994 31.730934100000002 64.48040019999999 C 36.599411 68.8135757 42.7398453 72.8111649 50 76.374939 C 57.2585144 72.8111649 63.3989525 68.8152161 68.2690659 64.4804001 C 69.2680512 63.594573999999994 70.6399689 63.4225845 71.7914048 63.9037666 C 84.0294114 52.4994125 84.9907456 42.2605095 85.0173417 39.670650499999994 C 85.04609690000001 36.913104999999995 84.3882218 34.262371099999996 83.1369248 31.884813299999994 C 81.24362190000001 31.223972299999993 78.83322150000001 29.005001099999994 77.83873750000001 27.403182999999995 C 76.48021700000001 25.214803699999994 77.14597320000001 23.189001099999995 78.8585968 22.125760999999997 C 80.57122039999999 21.0625209 82.6821442 21.364446599999997 84.04066470000001 23.5528259 C 84.9375382 24.997489899999998 85.7583008 27.683624199999997 85.73302460000001 29.6601124 C 87.48043820000001 32.6888924 88.4073944 36.120174399999996 88.3699493 39.7050286 C 88.3396606 42.5849457 87.2978057 54.085884199999995 73.8223266 66.55695349999999 C 73.9576873 67.6178437 73.5863876 68.72507479999999 72.7282867 69.4896622 C 67.49905389999999 74.1431809 60.9793434 78.4026871 53.3526001 82.1831665 L 53.3526001 91.2322693 C 94.416153 70.6494904 99.8865356 45.9438896 99.9985733 35.1795082 z M 78.5609665 43.9383469 C 78.5609665 44.864074699999996 77.81121060000001 45.6146469 76.88466650000001 45.6146469 L 67.5389557 45.6146469 L 61.5949631 55.2672958 C 61.2888413 55.7633094 60.7486267 56.0645179 60.1674881 56.0645179 C 60.1658516 56.0645179 60.1625748 56.0645179 60.1609383 56.0645179 C 59.576526699999995 56.0628814 59.0346756 55.7551231 58.7334633 55.2558364 L 52.9286156 45.653118 L 46.0760804 45.6146468 C 45.4278222 45.6105536 44.8384972 45.2332228 44.565117 44.644718100000006 L 39.8243257 34.441215400000004 L 35.754711300000004 44.563682400000005 C 35.499336400000004 45.1988448 34.883819700000004 45.6146468 34.199550800000004 45.6146468 L 23.1153336 45.6146468 C 22.1887837 45.6146468 21.4390336 44.8640746 21.4390336 43.938346800000005 C 21.4390336 43.012615100000005 22.1887837 42.262042900000004 23.1153336 42.262042900000004 L 33.0667344 42.262042900000004 L 38.1578484 29.598930300000006 C 38.4066735 28.979320500000007 39.0009079 28.565975100000006 39.668808 28.548786100000008 C 40.3547173 28.514408000000007 40.9505921 28.912202800000006 41.233795199999996 29.517896600000007 L 47.158145899999994 42.26777260000001 L 53.886268599999994 42.306243800000004 C 54.46904369999999 42.309516800000004 55.00925829999999 42.615638600000004 55.310470599999995 43.114929100000005 L 60.180583999999996 51.1698493 L 65.1751099 43.059268900000006 C 65.47959139999999 42.564071600000005 66.0214463 42.262042900000004 66.6025849 42.262042900000004 L 76.8846665 42.262042900000004 C 77.8112106 42.262043 78.5609665 43.0126152 78.5609665 43.9383469 z" stroke-linecap="round" />
</g>
</g>
</g>
<g transform="matrix(1.9211538461538462 0 0 1.9211538461538462 643.4589670703552 725.9331594096514)" id="text-logo"  >
<g style=""  paint-order="stroke"   >
		<g transform="matrix(1 0 0 1 0 0)" id="text-logo-path-0"  >
<linearGradient id="SVGID_109652" gradientUnits="userSpaceOnUse" gradientTransform="matrix(1 0 0 1 4.859999999999999 -35.19)"  x1="-4.901279296874975" y1="-9.64912828125" x2="-4.901279296874975" y2="48.35087171875">
<stop offset="0%" style="stop-color:rgb(91,36,122);stop-opacity: 1"/>
<stop offset="100%" style="stop-color:rgb(27,206,223);stop-opacity: 1"/>
</linearGradient>
<filter id="SVGID_109645" y="-34.208581983518044%" height="168.4171639670361%" x="-21.000900810729657%" width="142.00180162145932%" >
	<feGaussianBlur in="SourceAlpha" stdDeviation="0"></feGaussianBlur>
	<feOffset dx="1" dy="5" result="oBlur" ></feOffset>
	<feFlood flood-color="rgb(244,4,20)" flood-opacity="1"/>
	<feComposite in2="oBlur" operator="in" />
	<feMerge>
		<feMergeNode></feMergeNode>
		<feMergeNode in="SourceGraphic"></feMergeNode>
	</feMerge>
</filter>
<path style="stroke: none; stroke-width: 0; stroke-dasharray: none; stroke-linecap: butt; stroke-dashoffset: 0; stroke-linejoin: miter; stroke-miterlimit: 4; fill: url(#SVGID_109652); fill-rule: nonzero; opacity: 1;filter: url(#SVGID_109645);"  paint-order="stroke"  transform=" translate(-54.815, 17.595)" d="M 10.46 0 L 4.86 0 L 4.86 -35.19 L 10.46 -35.19 L 10.46 -19.52 L 28.51 -19.52 L 28.51 -35.19 L 34.07 -35.19 L 34.07 0 L 28.51 0 L 28.51 -14.99 L 10.46 -14.99 L 10.46 0 Z M 57.88 -8.62 L 40.64 -8.62 L 40.64 -11.53 L 57.68 -35.19 L 63.43 -35.19 L 63.43 -13.1 L 67.86 -13.1 L 67.86 -8.62 L 63.43 -8.62 L 63.43 0 L 57.88 0 L 57.88 -8.62 Z M 55.21 -24.23 L 47.22 -13.1 L 57.88 -13.1 L 57.88 -28.36 Q 56.31 -25.67 55.21 -24.23 L 55.21 -24.23 Z M 81.16 0 L 75.56 0 L 75.56 -35.19 L 81.16 -35.19 L 81.16 -19.52 L 99.22 -19.52 L 99.22 -35.19 L 104.77 -35.19 L 104.77 0 L 99.22 0 L 99.22 -14.99 L 81.16 -14.99 L 81.16 0 Z" stroke-linecap="round" />
</g>
</g>
</g>
<g transform="matrix(0.630884076819607 0 0 0.630884076819607 706.9612607774926 358.71796161232146)" id="shape-2eb42798-5566-4818-987e-b8cc3f013f4b"  >
<g style=""  paint-order="stroke"   >
		<g transform="matrix(1 0 0 1 0 0)" id="path-01"  >
<linearGradient id="SVGID_7_109649" gradientUnits="userSpaceOnUse" gradientTransform="matrix(1 0 0 1 0 -0.00001413182617682196)"  x1="0" y1="0" x2="0" y2="191">
<stop offset="0%" style="stop-color:rgb(91,36,122);stop-opacity: 1"/>
<stop offset="100%" style="stop-color:rgb(27,206,223);stop-opacity: 1"/>
</linearGradient>
<path style="stroke: none; stroke-width: 1; stroke-dasharray: none; stroke-linecap: butt; stroke-dashoffset: 0; stroke-linejoin: miter; stroke-miterlimit: 4; fill: url(#SVGID_7_109649); fill-rule: nonzero; opacity: 1;"  paint-order="stroke"  transform=" translate(-125.00000286568294, -95.30579448966874)" d="M 249.76894 81.86588 C 249.87888999999998 80.63446 250.40556999999998 80.16977 249.36774 79.59928000000001 C 247.26014 78.44057000000001 244.78118 78.26612 242.84043 76.64307000000001 C 241.7652 75.74392 241.48295 75.00038 240.87025 73.90815 C 240.01995 72.39247 237.63777 69.97853 238.57379 67.98531000000001 C 239.06602 66.93683000000001 240.92433 67.058 241.83433 66.97747000000001 C 244.04684 66.78174000000001 243.61801 66.02165000000001 243.67579 64.25793000000002 C 243.73594 62.41914000000001 245.58462 61.83136000000002 245.98864 60.204110000000014 C 246.23069 59.22900000000001 245.53439 58.555880000000016 245.3306 57.478360000000016 C 244.91492 55.27884000000002 244.87265 53.425860000000014 243.65821 51.42052000000002 C 243.15753999999998 50.94801000000002 242.72970999999998 50.41504000000002 242.37476 49.82165000000002 C 241.89241 48.58069000000002 241.32686 47.37837000000002 240.67814 46.21463000000002 C 239.88192 45.28859000000002 239.45173000000003 44.23132000000002 239.38777000000002 43.04274000000002 C 239.62007000000003 42.262480000000025 239.92775000000003 41.51339000000002 240.31048 40.79520000000002 C 241.08454 38.977690000000024 240.92257 36.17140000000002 239.07638 35.01829000000002 C 237.84139 34.24689000000002 236.32611 34.33047000000002 235.04249 33.71948000000002 C 234.54536 33.482880000000016 233.68043999999998 32.80385000000002 233.03744999999998 32.98783000000002 C 230.40703 33.74083000000002 234.03436999999997 38.536940000000016 230.01394 38.55712000000002 C 228.56632 38.56436000000002 228.24416 37.69780000000002 228.20543999999998 36.68848000000002 C 228.34421999999998 36.55364000000002 228.48578999999998 36.42528000000002 228.63606 36.31941000000002 C 229.62365 35.62397000000002 230.9006 34.84364000000002 230.04706 33.61280000000002 C 229.23487999999998 32.44152000000002 227.5938 31.93264000000002 226.25922 32.000480000000024 C 225.53673 32.037190000000024 225.20571999999999 32.31236000000003 224.55402 32.45149000000002 C 223.93631000000002 32.58338000000002 223.01818 32.44211000000002 222.38095 32.436120000000024 C 221.51941000000002 32.42807000000003 221.01726000000002 32.68439000000002 220.22398 32.83061000000002 C 219.39289000000002 32.98385000000002 218.62547 32.87207000000002 217.83044 33.299660000000024 C 217.36007 33.55265000000002 216.53976 34.28976000000002 216.05535 35.04358000000003 C 215.9182 35.01580000000003 215.77383 34.969100000000026 215.59826 34.879470000000026 C 214.5962 34.36779000000003 214.54330000000002 33.38758000000003 213.97569000000001 32.595060000000025 C 213.42714 31.828980000000026 212.79672000000002 31.786270000000027 211.88714000000002 31.664650000000027 C 210.66282 31.500920000000026 209.08367 31.300380000000025 207.85533 31.647800000000025 C 206.99467 31.891190000000027 206.55873 32.40634000000003 205.62640000000002 32.45422000000003 C 204.88752000000002 32.492130000000024 203.95785 32.63532000000003 203.25755 32.388980000000025 C 202.24557000000001 32.03306000000003 202.15321 31.304660000000027 201.63362 30.424200000000024 C 200.78729 28.989870000000025 199.57095 28.587330000000023 197.92129 28.500140000000023 C 196.42771 28.421220000000023 192.83717 29.361980000000024 191.76415 30.656360000000024 C 191.11229 31.442830000000026 191.32082 32.389270000000025 190.81246 33.216750000000026 C 190.38538 33.91205000000003 189.63025 34.279490000000024 188.85073999999997 34.593290000000025 C 188.88546999999997 34.464280000000024 188.91856999999996 34.32419000000002 188.94797999999997 34.16090000000003 C 188.74225999999996 32.549240000000026 187.92137999999997 31.233730000000026 187.30838999999997 29.741030000000027 C 187.03839999999997 29.083570000000027 187.12411999999998 27.89640000000003 186.71579999999997 27.33765000000003 C 186.31015999999997 26.782680000000028 185.55869999999996 26.99015000000003 185.04309999999998 26.839570000000027 C 183.86457 26.495250000000027 182.71176999999997 25.572670000000027 181.49452999999997 25.186830000000025 C 180.75682999999998 24.953040000000026 179.83114999999998 24.789380000000026 179.06964999999997 24.678770000000025 C 177.70344999999998 24.480160000000026 176.71954999999997 23.810880000000026 175.42576999999997 23.449780000000025 C 174.19698999999997 23.106710000000025 172.89227999999997 22.848030000000026 171.69068999999996 22.532600000000027 C 169.99894999999995 22.088380000000026 169.53121999999996 19.964820000000028 168.15659999999997 19.149690000000028 C 167.71872999999997 18.890050000000027 167.02698999999996 18.98056000000003 166.51552999999996 18.749070000000028 C 165.81713999999997 18.432830000000028 165.49985999999996 18.23673000000003 164.72623999999996 18.18944000000003 C 162.65218999999996 18.06250000000003 160.88388999999995 18.34844000000003 159.16094999999996 16.91516000000003 C 157.82546999999997 15.80417000000003 157.14983999999995 13.977940000000029 155.65314999999995 13.121720000000028 C 154.01592999999994 12.185110000000028 151.88262999999995 11.763130000000029 150.03658999999996 11.740000000000029 C 148.95070999999996 11.726400000000028 148.05282999999997 11.40425000000003 146.99828999999997 11.27480000000003 C 146.17058999999998 11.173270000000029 145.24949999999995 11.29726000000003 144.40996999999996 11.297110000000028 C 142.86554999999996 11.296740000000028 142.01744999999997 11.361680000000028 140.63188999999997 12.053140000000027 C 139.53448999999998 12.600650000000028 138.67471999999998 13.421560000000028 137.63450999999998 14.002170000000028 C 136.63404999999997 14.560620000000029 135.30539 14.316050000000027 134.18937999999997 14.316860000000029 C 131.54919999999998 14.318710000000028 128.68717999999998 14.025520000000029 126.26067999999997 15.275560000000029 C 125.30706999999997 15.76692000000003 123.42394999999996 17.35995000000003 123.30247999999996 15.253330000000028 C 122.58723999999997 15.088930000000028 122.30083999999997 15.079620000000029 121.67278999999996 14.758200000000029 C 121.07532999999997 14.452450000000029 120.52440999999996 14.01842000000003 119.86133999999997 13.844720000000029 C 118.60169999999997 13.514740000000028 117.70792999999998 14.284290000000029 116.68604999999997 14.76086000000003 C 115.49214999999997 15.31783000000003 114.80365999999997 15.58723000000003 113.79108999999997 16.451500000000028 C 112.22538999999996 17.787920000000028 111.76032999999997 18.64488000000003 109.67445999999997 18.62922000000003 C 108.78779999999996 18.622570000000028 107.89063999999996 18.57232000000003 107.00544999999997 18.599960000000028 C 105.37309999999997 18.65109000000003 104.50343999999997 19.347930000000026 103.36656999999997 20.35630000000003 C 102.16942999999996 21.418370000000028 101.28201999999996 22.81103000000003 100.08088999999997 23.84059000000003 C 98.61892999999996 25.093750000000032 96.48192999999996 25.739670000000032 94.88193999999997 26.84948000000003 C 93.84114999999997 27.57152000000003 92.59228999999998 28.443850000000033 91.47685999999997 28.984200000000033 C 90.40960999999997 29.501200000000033 88.82543999999997 30.390090000000033 88.61323999999998 31.804460000000034 C 88.52057999999998 32.421870000000034 88.75540999999997 32.74396000000004 89.28533999999998 33.19519000000003 C 89.54364999999997 33.41523000000003 89.82236999999998 33.39986000000003 90.06441999999997 33.66268000000003 C 90.44376999999997 34.07476000000003 90.47494999999996 35.07093000000003 90.80522999999997 35.59790000000003 C 91.25564999999996 36.31654000000003 91.63987999999996 36.90514000000003 91.97886999999997 37.68578000000003 C 92.19801999999997 38.19022000000003 92.51692999999997 38.74128000000003 92.66351999999998 39.26249000000003 C 92.80803999999998 39.775870000000026 92.65007999999997 40.22274000000003 93.13936999999997 40.56360000000003 C 93.93337999999997 41.11651000000003 95.61331999999997 40.33492000000003 96.39342999999997 40.233830000000026 C 97.77026999999997 40.05531000000003 97.85228999999997 40.440420000000024 98.88126999999997 41.085480000000025 C 100.47030999999997 42.08180000000002 103.36511999999998 41.49467000000003 105.17022999999998 41.49467000000003 C 106.42485999999998 41.49467000000003 108.17453999999998 41.84653000000003 109.35513999999998 41.481660000000026 C 110.56719999999997 41.107040000000026 111.22983999999998 38.567190000000025 112.57209999999998 38.541630000000026 C 112.87208999999997 38.535870000000024 113.40377999999998 39.010600000000025 113.67509999999997 39.156080000000024 C 114.38265999999997 39.53528000000002 115.18153999999997 39.813250000000025 115.87284999999997 40.21040000000002 C 116.22249999999997 40.41138000000002 116.57123999999997 40.84473000000002 116.92369999999997 40.99953000000002 C 117.25783999999997 41.14619000000002 117.48154999999997 40.953650000000025 117.76809999999996 41.04941000000002 C 118.54643999999996 41.309580000000025 119.07090999999996 41.503820000000026 119.92505999999996 41.503080000000026 C 121.11406999999996 41.50204000000002 121.44138999999996 41.05856000000003 122.49105999999996 40.71779000000002 C 123.08733999999995 40.52427000000002 124.07006999999996 40.47078000000002 124.68038999999996 40.602600000000024 C 125.79225999999996 40.84267000000003 125.94742999999995 42.00900000000002 126.91478999999995 42.50797000000002 C 127.78606999999995 42.95722000000002 128.90417999999994 42.85089000000002 129.83707999999996 43.210210000000025 C 131.31958999999995 43.781220000000026 132.76366999999996 44.14165000000003 134.17093999999994 44.92501000000002 C 135.43132999999995 45.626510000000025 136.35228999999995 46.73159000000002 137.62064999999996 47.435160000000025 C 138.23009999999996 47.77312000000003 138.86832999999996 48.051830000000024 139.42147999999995 48.47359000000002 C 140.03770999999995 48.943670000000026 140.42103999999995 49.250970000000024 140.86022999999994 49.905990000000024 C 141.22109999999995 50.444050000000026 141.38824999999994 51.043950000000024 142.01200999999995 51.36219000000003 C 142.93398999999994 51.832570000000025 144.63134999999994 51.80198000000003 145.66801999999996 51.95552000000003 C 148.19293999999996 52.329390000000025 150.04354999999995 52.25403000000003 150.87716999999995 54.95082000000003 C 151.14123999999995 55.80534000000003 151.16297999999995 56.56411000000003 151.84274999999994 57.04320000000003 C 152.84733999999995 57.751490000000025 154.38658999999993 57.83278000000003 155.51545999999993 58.33012000000003 C 156.02837999999994 58.55614000000003 157.06239999999994 58.852070000000026 157.48695999999993 59.17178000000003 C 157.97580999999994 59.53982000000003 158.03608999999992 59.924040000000026 157.9072299999999 60.692410000000024 C 157.78692999999993 61.410020000000024 157.3832299999999 62.04708000000002 156.9274599999999 62.64137000000002 C 156.2000999999999 63.58936000000002 155.81734999999992 63.36851000000002 154.78188999999992 63.46338000000002 C 153.1842599999999 63.609830000000024 151.37961999999993 64.76530000000002 151.81583999999992 66.52539000000002 C 151.97174999999993 67.15404000000001 152.53876999999991 67.52962000000002 152.93155999999993 68.02526000000002 C 153.31369999999993 68.50723000000002 153.80744999999993 69.13935000000002 153.97176999999994 69.74664000000001 C 154.16179999999994 70.44918000000001 153.99112999999994 71.06378000000001 153.69895999999994 71.69059000000001 C 153.19637999999995 72.76862000000001 152.56653999999995 72.57045000000001 151.70189999999994 73.23885000000001 C 150.38490999999993 74.25689000000001 150.70839999999993 76.80884000000002 150.57626999999994 78.24901000000001 C 150.43824999999993 79.75287000000002 149.35562999999993 82.04431000000001 150.54553999999993 83.34822000000001 C 151.35801999999993 84.23872000000001 153.65371999999994 83.37608000000002 154.37118999999993 85.05534000000002 C 154.59698999999992 85.58387000000002 154.40399999999994 86.23216000000002 154.42793999999992 86.78943000000001 C 154.47758999999994 87.94431000000002 154.85530999999992 87.61003000000001 155.4260199999999 88.39666000000001 C 156.4722999999999 89.83903000000001 153.6813799999999 90.43391000000001 152.71239999999992 90.78015 C 151.8277999999999 91.0964 150.8079999999999 91.73627 149.90831999999992 91.93577 C 148.93698999999992 92.15108000000001 148.4536099999999 91.63083 148.0546099999999 92.82192 C 147.6536899999999 94.01899 148.81018999999992 96.32402 149.84241999999992 97.01607 C 150.2556099999999 97.29308999999999 150.9495699999999 97.36948 151.40679999999992 97.64095 C 152.31725999999992 98.18158 152.89846999999992 98.92292 153.60454999999993 99.6567 C 154.37372999999994 100.45632 155.22919999999993 100.75676 155.53037999999992 101.88998 C 155.87262999999993 103.17845 155.57056999999992 104.38823 156.45443999999992 105.43227999999999 C 156.99841999999992 106.07480999999999 157.89985999999993 106.70109 158.71661999999992 106.96887 C 159.75134999999992 107.30802 160.77751999999992 107.29176 161.78018999999992 107.81549 C 162.96446999999992 108.43393999999999 163.63730999999993 109.55129 164.38238999999993 110.64809 C 166.01473999999993 113.05094 168.33276999999993 114.90791999999999 170.33277999999993 117.00072999999999 C 171.17156999999992 117.87830999999998 170.68626999999992 118.80981999999999 170.82088999999993 119.93366999999999 C 170.92832999999993 120.82912999999999 171.48233999999994 121.82212 172.12517999999994 122.54364 C 172.85579999999993 123.36388 173.58890999999994 122.90562 174.58521999999994 123.00567 C 175.22701999999992 123.07011 175.80452999999994 123.3364 176.44100999999995 123.42329 C 177.10216999999994 123.51343999999999 177.91434999999996 123.25910999999999 178.52776999999995 123.51462 C 178.77913999999996 124.46482999999999 178.73702999999995 125.05202 179.45034999999996 125.63772999999999 C 180.11962999999994 126.18731 181.26076999999995 126.59222 182.02491999999995 127.08933999999999 C 182.64307999999994 127.49144999999999 183.18127999999996 127.95900999999999 183.83489999999995 128.2046 C 184.80668999999995 128.56977 185.82650999999996 128.72227 186.79946999999996 129.17573 C 188.23437999999996 129.84448999999998 189.13006999999996 131.05892 188.97253999999995 132.72999 C 188.87442999999996 133.77078999999998 188.28566999999995 134.67726 187.95684999999995 135.66662 C 187.58297999999994 136.79217 187.65522999999993 137.78694 187.65375999999995 138.97328 C 187.65315999999996 139.48547 188.03057999999996 141.52325 187.59700999999995 141.95247999999998 C 187.40059999999997 142.14687999999998 186.96687999999995 141.99391999999997 186.73576999999995 142.00775 C 186.00618999999995 142.05127 185.37429999999995 142.05614 184.65477999999996 142.22417 C 183.29463999999996 142.54173999999998 183.30467999999996 142.43133999999998 181.93346999999997 141.91323999999997 C 179.80147999999997 141.10761999999997 178.02179999999998 141.13984999999997 175.84311999999997 141.15063999999998 C 173.21518999999998 141.16371999999998 170.65155999999996 140.75576999999998 168.02539999999996 140.71579999999997 C 165.86444999999995 140.68291999999997 165.33333999999996 141.52583999999996 164.34279999999995 143.14525999999998 C 163.85600999999994 143.94126999999997 163.22028999999995 145.11446999999998 162.55925999999997 145.79422999999997 C 162.21182999999996 146.15155999999996 161.52689999999996 146.36833999999996 161.11458999999996 146.74266999999998 C 160.67879999999997 147.13840999999996 160.37111999999996 147.64720999999997 159.86261999999996 147.96269999999998 C 158.94609999999997 148.5315 157.52565999999996 148.44725999999997 156.74612999999997 149.33436999999998 C 155.92552999999995 150.26830999999999 156.20970999999997 151.45394 156.18235999999996 152.58531999999997 L 156.18235999999996 152.58641999999998 C 155.63143999999997 152.47964999999996 155.07772999999997 152.41411999999997 154.44878999999997 152.37340999999998 C 153.19622999999999 152.29241999999996 152.16724999999997 151.73796 150.97692999999998 151.48902999999999 C 149.70499999999998 151.2231 148.48879999999997 150.36755 147.10278 150.61478 C 146.54153 150.71491 145.64096999999998 151.02043 145.14547 151.27223999999998 C 144.65306999999999 151.52235 144.11915 151.75207999999998 143.66163 152.00647999999998 C 143.02606 152.35983 142.50381000000002 153.13284 141.9687 153.85309999999998 C 141.61360000000002 153.50197999999997 141.28140000000002 153.08768999999998 141.0411 152.78555999999998 C 140.35601 151.92483 140.20882 152.14389999999997 139.3362 151.53357999999997 C 138.33115999999998 150.83073999999996 138.34313 150.24474999999998 136.95861 150.18599999999998 C 133.97189 150.05943 130.57818 149.91083999999998 127.61022 150.28318 C 126.2879 150.44904 125.41794 150.93021 124.41408 151.68507 C 124.18415 151.08848 124.14128 150.44550999999998 123.8413 149.86328 C 122.66898 147.58691 121.27811 148.1266 119.27720000000001 148.43899 C 115.98191000000001 148.95354999999998 112.70717 148.89613 109.31907000000001 148.9107 C 109.12032 148.91156999999998 108.90678000000001 148.9243 108.68865000000001 148.93742999999998 C 108.16228000000001 148.87521999999998 107.63190000000002 148.86856999999998 107.09974000000001 148.88600999999997 C 106.81172000000001 148.82113999999996 106.54202000000001 148.71281999999997 106.31386 148.52084999999997 C 105.62152 147.93808999999996 105.26301000000001 146.66905999999997 104.40177 146.24928999999997 C 103.3991 145.76059999999998 101.85187 146.43335999999996 100.53636 146.90210999999996 C 99.82393 146.20444999999995 99.1344 145.46643999999998 98.30936 144.93443999999997 C 95.63829 143.21238999999997 92.15458 144.47795999999997 89.2846 144.60756999999995 C 87.90052 144.67006999999995 86.60244 144.61347999999995 85.28529999999999 144.16068999999996 C 84.41962 143.86313999999996 83.77369999999999 143.41713999999996 83.02238999999999 144.00411999999997 C 82.27641999999999 144.58687999999998 82.44043999999998 145.89116999999996 82.34704999999998 146.73157999999998 C 79.18948999999998 147.39377 76.65746999999998 146.09642999999997 73.72675999999998 145.43955999999997 C 73.15588999999999 145.31157999999996 72.60083999999999 145.28321999999997 72.03042999999998 145.03589999999997 C 70.94441999999998 144.56514999999996 71.05657999999998 143.63783999999998 70.42068999999998 142.63324999999998 C 69.68209999999998 142.97484999999998 70.03439999999998 144.20029999999997 68.94395999999998 144.14552999999998 C 68.22811999999998 144.10952999999998 67.51538999999998 143.36659999999998 66.73394999999998 143.27105999999998 C 65.06567999999997 143.06727999999998 63.35072999999998 143.54325999999998 61.67848999999998 143.20736999999997 C 60.94773999999998 143.06063999999998 60.200569999999985 143.00254999999996 59.48768999999998 142.86895999999996 C 58.46787999999998 142.67773999999997 58.80244999999998 142.42458999999997 57.88119999999998 141.67226999999997 C 56.694989999999976 140.70327999999998 55.028219999999976 140.91356999999996 53.84436999999998 139.99129999999997 C 52.699979999999975 139.09975999999997 51.93449999999998 138.52230999999998 50.456869999999974 138.08437999999995 C 49.34853999999997 137.75586999999996 48.565619999999974 137.69809999999995 47.44251999999997 137.68677999999994 C 45.27743999999997 137.66506999999993 43.17943999999997 137.83013999999994 41.05528999999997 137.36988999999994 C 40.34034999999997 137.21485999999993 39.60264999999997 137.20901999999995 38.90837999999997 136.95920999999993 C 37.87924999999997 136.58902999999992 37.37991999999997 135.89549999999994 36.578669999999974 135.19985999999992 C 35.83608999999998 134.55517999999992 34.88144999999997 134.27506999999991 34.07634999999998 133.71830999999992 C 33.113439999999976 133.05242999999993 32.214059999999975 132.19967999999992 31.054599999999976 131.86909999999992 C 30.128919999999976 131.60516999999993 29.249949999999977 131.87182999999993 28.351459999999975 132.14085999999992 C 27.962809999999976 131.98678999999993 27.585529999999974 131.83140999999992 27.283029999999975 131.5805699999999 C 26.432869999999976 130.8756599999999 26.325729999999975 130.27139999999991 25.234249999999975 129.8737399999999 C 24.464029999999976 129.5931199999999 23.718199999999975 129.3201699999999 22.861539999999973 129.4765099999999 C 21.814099999999975 129.6676699999999 21.08436999999997 129.9355199999999 19.960079999999973 129.9301799999999 C 18.62180999999997 129.9238299999999 18.047839999999972 129.9399499999999 16.85941999999997 130.5201199999999 C 14.89885999999997 131.4771199999999 12.688699999999972 131.5773899999999 10.782529999999973 132.5184999999999 C 10.656619999999974 132.5499799999999 10.821249999999973 132.6880699999999 11.119019999999972 132.8684499999999 C 10.569579999999972 133.0100199999999 10.019409999999972 133.1821899999999 9.447359999999973 133.3651999999999 C 8.057509999999972 133.8097799999999 6.7815999999999725 134.2986299999999 6.0509999999999735 135.58273999999992 C 5.298219999999974 136.9061499999999 5.317129999999974 137.9329099999999 5.100789999999973 139.37771999999993 C 4.899219999999973 140.72329999999994 4.327029999999973 142.05337999999992 3.8788199999999735 143.3256599999999 C 3.4716999999999736 144.4813599999999 2.9358599999999733 145.5935299999999 2.5653799999999736 146.76149999999993 C 2.194009999999974 147.93166999999994 2.1844099999999735 149.2609199999999 1.5328599999999735 150.32240999999993 C 0.9754399999999734 151.23079999999993 0.48836999999997355 151.19829999999993 0.3968999999999734 152.33040999999994 C 0.30412 153.47787 0.05482 154.6609 0 155.80316 C 1.58698 156.07521 3.29942 155.30604 4.00551 157.07715 C 4.25969 157.71465999999998 4.21949 158.64514 4.700060000000001 159.19819999999999 C 5.250380000000001 159.83141999999998 5.86706 159.61721999999997 6.513280000000001 160.00787999999997 C 7.380140000000001 160.53204999999997 7.488460000000001 161.53900999999996 7.910210000000001 162.33839999999998 C 8.30315 162.73953999999998 8.6652 163.16645999999997 8.99637 163.61917999999997 C 9.4032 164.07574999999997 9.71147 164.59451999999996 9.92131 165.17549999999997 C 10.59666 165.93246999999997 11.02343 165.67497999999998 11.99315 165.73128999999997 C 13.19103 165.80081999999996 14.23463 166.16146999999998 15.4634 166.18416999999997 C 16.74419 166.20773999999997 17.77448 166.09593999999996 18.93617 165.43263999999996 C 19.508950000000002 165.10559999999995 19.94859 164.54876999999996 20.50778 164.23814999999996 C 22.4478 163.16085999999996 25.62989 165.10435999999996 27.342480000000002 165.93190999999996 C 28.897100000000002 166.68312999999995 29.70707 168.19460999999995 31.154090000000004 168.88382999999996 C 31.784060000000004 169.18390999999997 32.356700000000004 169.27115999999995 32.95638 169.66275999999996 C 34.032340000000005 170.36543999999995 34.83832 171.38237999999996 35.83404 172.17747999999997 C 37.401070000000004 173.42900999999998 39.18504 174.15310999999997 40.54252 175.69012999999998 C 41.47086 176.74112 41.86276 177.56816999999998 43.01129 178.36063 C 43.728010000000005 178.85509 45.18273 179.60727 45.59414 180.48683999999997 C 46.012950000000004 181.38222999999996 45.420210000000004 182.21318999999997 45.666250000000005 183.04065999999997 C 45.935500000000005 183.94632999999996 47.14166 184.29092999999997 47.872420000000005 184.88678 C 48.86283 185.69422999999998 49.85737 186.59317 50.40872 187.76682 C 51.01431 189.05625 50.387890000000006 190.25450999999998 51.95152 190.34368 C 53.45176 190.42933 55.00341 190.32683 56.50676 190.32027 C 57.55287 190.31569 61.59753 191.19512 62.15081 189.92009 C 61.60108 189.50835999999998 61.10558 189.22138999999999 60.88229 188.55948999999998 C 60.580529999999996 187.66543 60.984849999999994 186.65198999999998 60.80426 185.72513999999998 C 60.33403 183.3106 58.09092 181.48332 57.62912 179.03746999999998 C 58.13393 178.54086999999998 58.83262 178.45072 59.46156 178.18553999999997 C 60.78653 177.62693 61.59959 176.80839999999998 62.79275 176.10423999999998 C 64.80326 174.91758 67.82678 175.46258999999998 69.32924 173.54695999999998 C 69.98094 172.7163 70.17896 171.33479999999997 71.13301 170.78042 C 72.34846999999999 170.07404 73.77866 170.80813 75.05177 170.90556999999998 C 76.69224 171.03119999999998 77.81698 171.75055999999998 79.20829 172.57988999999998 C 79.91895000000001 173.00349999999997 79.66405 173.11160999999998 80.36198 173.07967999999997 C 81.45864 173.02942999999996 82.79454 171.74376999999996 83.89918 171.40418999999997 C 84.58591 171.19315999999998 85.38833 171.21058999999997 86.03042 170.91829999999996 C 86.33927000000001 170.77760999999995 86.87186000000001 170.09103999999996 87.11777000000001 170.05040999999997 C 87.65804000000001 169.96114999999998 87.97339000000001 170.79726999999997 88.16314000000001 171.02544999999998 C 88.49860000000001 171.37035999999998 88.83405000000002 171.71527999999998 89.16935000000001 172.06017999999997 C 89.86626000000001 172.34153999999998 90.34580000000001 172.16332999999997 90.60797000000001 171.52566 C 91.44527000000001 170.92604999999998 91.73048000000001 169.73933 92.61907000000001 169.11246999999997 C 93.1487 168.73873999999998 93.83099000000001 168.50627999999998 94.44900000000001 168.38391999999996 C 95.62871000000001 168.15056999999996 97.00229000000002 168.15648999999996 97.83339000000001 169.12398999999996 C 98.15082000000001 169.49329999999998 98.45849000000001 170.36716999999996 98.66537000000001 170.82808999999997 C 99.21924000000001 172.06247999999997 99.11062000000001 171.82327999999998 100.25058000000001 172.2548 C 101.29107000000002 172.64871 102.40443000000002 173.06042 103.44611000000002 173.45032999999998 C 104.45942000000002 173.82967999999997 104.68079000000002 173.98540999999997 105.67607000000002 173.51784999999998 C 107.34359000000002 172.7344 109.54444000000002 173.04157999999998 111.35234000000003 172.85463 C 112.52627000000003 172.73316999999997 113.72861000000003 172.64051999999998 114.93905000000002 172.58596999999997 C 115.08564000000003 172.65986999999998 115.23992000000003 172.74342999999996 115.41608000000002 172.85035999999997 C 116.85913000000002 173.72591999999997 118.24645000000002 174.10024999999996 119.82914000000002 174.45965999999996 C 120.96762000000003 174.71832999999995 121.65464000000003 175.63033999999996 122.60942000000003 176.00176999999996 C 123.37284000000002 176.29888999999997 124.27606000000003 176.20600999999996 125.10183000000004 176.52068999999997 C 127.06757000000003 177.26992999999996 128.97449000000003 177.64763999999997 131.08667000000003 177.28750999999997 C 132.26505000000003 177.08654999999996 133.82350000000002 176.54182999999998 135.02080000000004 177.02728999999997 C 135.66762000000003 177.28958999999998 136.78630000000004 178.24673999999996 137.35538000000003 178.67418999999995 C 138.3223 179.40021999999996 138.49741000000003 180.17436999999995 139.71848000000003 180.41020999999995 C 141.46137000000002 180.74684999999994 143.62513000000004 180.40326999999996 145.41884000000002 180.40326999999996 C 146.99887 180.40326999999996 148.58956 180.47226999999995 150.16707000000002 180.42172999999997 C 151.53638000000004 180.37784999999997 153.57703000000004 179.34826999999996 154.03336000000002 177.96080999999998 C 154.21099 177.42052999999999 154.1671 176.86221999999998 153.99332 176.32832 C 154.42527 176.2749 154.85205000000002 176.20793999999998 155.26863 176.11316 C 157.26259 175.65918 159.11868 174.82321 161.18608 174.76587 C 162.58908 174.72701 163.76746 174.85477 165.12227000000001 175.22649 C 167.80264000000003 175.96198 171.64443000000003 176.18659000000002 173.85147 174.28930000000003 C 174.61844 173.63006000000001 175.12088 172.31248000000002 176.06990000000002 171.86590000000004 C 176.81367000000003 171.51595000000003 178.33800000000002 171.77546000000004 179.12772 171.76690000000005 C 183.04885000000002 171.72479000000004 186.83355 172.27909000000005 190.72054 172.58675000000005 C 192.81293 172.75241000000005 194.78338 172.25743000000006 196.806 171.87136000000004 C 198.13377 171.61793000000003 199.47426000000002 171.63227000000003 200.82021 171.36013000000003 C 203.34217 170.85036000000002 205.78197 170.42788000000002 208.36528 170.46082 C 210.39941000000002 170.48682000000002 212.77866 170.12668000000002 214.77629000000002 170.66468 C 216.49522000000002 171.12766 218.50708000000003 172.31025 219.86087 173.40499 C 220.34912 173.79986 220.8266 174.55337 221.3376 174.8697 C 222.17387000000002 175.3872 222.39777 175.09941 223.57436 175.27644999999998 C 225.39692000000002 175.55057 227.74094000000002 176.22643 229.09443000000002 177.48710999999997 C 230.62983000000003 178.91737999999998 231.98095 180.71241999999998 233.54414000000003 182.11349999999996 C 234.8112 183.24902999999995 235.97657000000004 183.69558999999995 236.80722000000003 185.23216999999997 C 237.69566000000003 186.87597999999997 240.21498000000003 190.28628999999998 241.99197000000004 187.71815999999995 C 242.72451000000004 186.65940999999995 242.49221000000003 184.90617999999995 242.47831000000005 183.66291999999996 C 242.43974000000006 180.18984999999995 241.29432000000006 177.99935999999997 238.14948000000004 176.51374999999996 C 238.03391000000005 175.84069999999997 238.97896000000003 175.12849999999995 239.34205000000003 174.63129999999995 C 240.02862000000002 173.69104999999996 240.61958000000004 172.62697999999995 241.08967000000004 171.55671999999996 C 241.98622000000003 169.51574999999997 240.98698000000005 167.26406999999995 242.36529000000004 165.40496999999996 C 243.23010000000005 164.23847999999995 244.42723000000004 163.41241999999997 245.11129000000005 162.08964999999995 C 245.19462000000004 161.92863999999994 245.55180000000004 161.66583999999995 245.54427000000004 161.46263999999994 C 245.51249000000004 160.59192999999993 243.55430000000004 158.69565999999995 243.32967000000005 158.46733999999995 C 242.43503000000004 157.55821999999995 241.70722000000006 156.65321999999995 240.39879000000005 156.59285999999994 C 239.40868000000006 156.54712999999995 238.39005000000006 156.97553999999994 237.39139000000006 156.69977999999995 C 235.99845000000005 156.31510999999995 234.99043000000006 154.87377999999995 233.90872000000005 154.01148999999995 C 232.67271000000005 153.02633999999995 231.02101000000005 152.96323999999996 229.93484000000004 151.72751999999994 C 229.23896000000005 150.93602999999993 228.40312000000003 149.20267999999993 228.26141000000004 148.20686999999995 C 228.04271000000003 146.66946999999996 229.65583000000004 143.99676999999994 226.96040000000005 143.72175999999996 C 226.79298000000006 142.30050999999997 227.16139000000004 141.00360999999995 225.94798000000006 140.04644999999996 C 224.98697000000007 139.61552999999998 224.04785000000007 139.14057999999997 223.13089000000005 138.62180999999995 C 222.06024000000005 138.06727999999995 221.18376000000006 137.29224999999997 220.50179000000006 136.29667999999995 C 219.90845000000004 135.40505999999996 219.23121000000006 134.58401999999995 218.46985000000006 133.83338999999995 C 218.14771000000007 133.45655999999994 218.20801000000006 133.12545999999995 218.65090000000006 132.84008999999995 C 219.29593000000006 131.34177999999994 220.52634000000006 131.63024999999993 221.91559000000007 131.63880999999995 C 223.94695000000007 131.65137999999996 226.04286000000008 131.80506999999994 228.05736000000007 132.04490999999996 C 229.81265000000008 132.25393999999997 230.88610000000008 133.60218999999995 232.57077000000007 133.99955999999995 C 234.37364000000008 134.42472999999995 234.53427000000008 133.22594999999995 234.89278000000007 131.67118999999994 C 235.29340000000008 129.93316999999993 235.70807000000008 129.23167999999993 236.75034000000008 127.82112999999994 C 237.35637000000008 127.00111999999994 237.48906000000008 126.83877999999994 238.52442000000008 126.59428999999994 C 240.15529000000006 126.20919999999994 240.83240000000006 125.97265999999995 241.09427000000008 124.09891999999995 C 241.3595300000001 122.20115999999994 241.03931000000009 121.83821999999995 242.32243000000008 120.11262999999995 C 243.46666000000008 118.57382999999996 244.1198400000001 117.70458999999995 243.68892000000008 115.69570999999995 C 243.38966000000008 114.30136999999995 242.47391000000007 113.19798999999995 242.11745000000008 111.82557999999995 C 241.78969000000006 110.56311999999994 241.33602000000008 109.48855999999995 240.70352000000008 108.34128999999994 C 240.32033000000007 107.64629999999994 240.03570000000008 106.54933999999994 239.41167000000007 106.07837999999994 C 238.40959000000007 105.32196999999994 236.72818000000007 105.41440999999993 235.54908000000006 105.30092999999994 C 235.47355000000007 104.23338999999994 235.58987000000005 103.67552999999994 234.63728000000006 103.13613999999994 C 233.16986000000006 102.30518999999994 231.23605000000006 103.30171999999995 229.98468000000005 103.96989999999994 C 229.16038000000006 104.41012999999994 226.96294000000006 105.07932999999994 227.41231000000005 103.21312999999994 C 227.75678000000005 101.78271999999994 230.00832000000005 101.08616999999994 231.09625000000005 100.48109999999994 C 232.60876000000005 99.63972999999994 233.88186000000005 99.24922999999994 235.59297000000007 98.96741999999995 C 236.73929000000007 98.77862999999995 237.54585000000006 98.68523999999995 238.53670000000005 97.97036999999995 C 241.37401000000006 95.92313999999995 242.17867000000004 92.19425999999994 245.90030000000004 91.17548999999994 C 247.54833000000005 90.72439999999995 249.01012000000006 90.72587999999993 249.00687000000005 88.53190999999994 C 249.00450000000004 86.89105999999994 248.00360000000006 85.54289999999995 248.87934000000004 83.91158999999993 C 249.44295000000005 82.86155999999993 249.66300000000004 83.05366999999993 249.76894000000004 81.86597999999994 L 249.76894000000004 81.86588 z M 140.65567 4.82618 C 141.78839 5.32648 142.93677 5.09498 144.17705999999998 5.4897 C 145.12592999999998 5.79168 145.81545999999997 6.59884 146.65748 6.91789 C 147.28422 7.15529 148.08604 6.98623 148.73228 6.98158 C 149.79968 6.9739700000000004 150.87934 6.93968 151.94554 6.97308 C 153.39553999999998 7.0185900000000006 154.67352 7.420990000000001 156.18277 7.414490000000001 C 157.03737 7.410800000000001 157.89447 7.396310000000001 158.74892 7.413010000000001 C 159.06841 7.4192100000000005 159.66942 7.571580000000001 159.95862 7.3508000000000004 C 160.46343 6.96532 160.16935999999998 6.26803 160.04462999999998 5.688890000000001 C 158.67739999999998 5.719250000000001 157.81556999999998 5.1549700000000005 156.6994 4.394730000000001 C 155.48068 3.564660000000001 154.14287 3.0020000000000007 152.80679 2.335230000000001 C 151.82792 1.846680000000001 151.12613000000002 1.998000000000001 150.12257 1.828650000000001 C 148.81356 1.607800000000001 147.55316 0.847120000000001 146.22996 0.598180000000001 C 145.64608 0.488310000000001 145.06031000000002 0.6386000000000011 144.50437 0.5360400000000011 C 143.87957 0.4206200000000011 143.45367 0.09944000000000108 142.78880999999998 0.06463000000000108 C 141.71137 0.008330000000001073 140.36306 -0.08912999999999893 139.31692999999999 0.1782700000000011 C 138.46115999999998 0.3969800000000011 136.98336999999998 0.9736100000000012 136.28558999999998 1.470950000000001 C 135.2705 2.194540000000001 135.57817999999997 3.311450000000001 135.18493999999998 4.351790000000001 C 136.99551 4.78081 138.87065 4.03764 140.65567 4.82618 z M 103.97647 108.14052 C 104.18114 109.00665 105.24972000000001 109.44095 105.71285 110.18051 C 105.99614 110.63294 105.97294000000001 111.26017999999999 106.40564 111.57177 C 107.29777 112.21416 107.84911000000001 112.12151 108.62437 113.1266 C 109.37286 114.0972 109.61565 113.86542 110.72664999999999 113.93332 C 112.07172 114.01541999999999 113.05281 114.81532999999999 114.42227 114.83986 C 115.28263 114.85523 116.29326999999999 114.66697 117.13221 114.81178 C 117.65504 114.90208 117.7916 114.92733 118.30542 115.23049999999999 C 118.8349 115.54297999999999 119.16091 116.22703999999999 119.60261 116.49325999999999 C 119.88441999999999 116.66311999999999 120.05599 116.44116 120.30337 116.53469999999999 C 121.11999 116.84310999999998 121.88385 116.84495999999999 122.65391 117.39047999999998 C 123.52181 118.00523999999999 124.19744999999999 119.01883999999998 124.78707 119.88982999999999 C 125.44468 120.86102999999999 125.72974 122.20371999999999 126.82876 122.73320999999999 C 127.68025 123.14336999999999 128.23678 123.23830999999998 128.97582 123.89059999999999 C 130.03509 124.82558999999999 130.76288 124.76410999999999 132.12377 124.75184999999999 C 133.23476 124.74193999999999 134.35654 124.81191999999999 135.46515 124.76337 C 136.27823 124.72775 136.93377999999998 124.39466999999999 137.71817 124.29123 C 139.2549 124.08861999999999 139.41701999999998 125.385 140.72780999999998 125.64842 C 141.45737999999997 125.79508 142.03148999999996 125.57379 142.75501999999997 125.90851 C 143.80954999999997 126.3964 144.88093999999998 127.01122000000001 145.83941999999996 127.67415000000001 C 146.49850999999995 128.13004 146.76435999999995 128.53843 147.55645999999996 127.80243000000002 C 148.14918999999995 127.25180000000002 148.36271999999997 126.37312000000001 148.40690999999995 125.61622000000001 C 148.48701999999994 124.24448000000001 148.72360999999995 122.19089000000001 148.08239999999995 120.94609000000001 C 147.68073999999996 120.16634 147.41311999999996 120.29188 146.77737999999994 119.91061 C 146.09642999999994 119.50223000000001 145.64228999999995 118.83058000000001 145.12478999999993 118.28247 C 144.58584999999994 117.71191 143.73847999999992 117.40172 143.19805999999994 116.89233 C 142.65438999999995 116.38014 142.26411999999993 115.53913 141.80630999999994 114.92733 C 140.69221999999993 113.43862 139.87011999999993 112.90854 138.08584999999994 112.69826 C 136.88116999999994 112.55617000000001 135.81391999999994 112.22714 134.57125999999994 112.23881 C 133.62710999999993 112.24761 132.48849999999993 112.4188 131.56266999999994 112.16936 C 130.97584999999995 112.01116 130.60816999999994 111.54514999999999 130.04661999999993 111.40447 C 129.64982999999992 111.30494 129.31039999999993 111.43003 128.88833999999994 111.31655 C 128.00152999999995 111.07804 127.08797999999994 110.07552000000001 126.30991999999995 109.58098000000001 C 125.39916999999996 109.00214000000001 124.14615999999995 108.02207000000001 123.38377999999994 107.26280000000001 C 122.97206999999995 106.85279000000001 122.70932999999995 106.24380000000001 122.28400999999994 105.8358 C 121.47877999999994 105.06367 122.16430999999994 105.60363000000001 121.25148999999993 105.35456 C 119.87788999999994 104.97971000000001 118.53001999999994 104.55441 117.12598999999993 104.26729 C 115.73156999999993 103.98207000000001 114.41132999999994 103.24172 113.01422999999993 103.17536 C 111.57902999999993 103.10708 109.69041999999993 102.92266 108.27737999999992 103.16147 C 107.62064999999993 103.27243999999999 107.00603999999993 103.80496 106.45587999999992 103.94912 C 105.29700999999993 104.25265999999999 105.19991999999992 103.85083999999999 106.55178999999993 104.47793999999999 C 105.67650999999992 105.35175 103.64440999999992 106.73500999999999 103.97646999999992 108.14052999999998 L 103.97646999999992 108.14052 z M 62.97123 138.99937 C 63.89262 139.11715 65.22069 139.11686 66.02312 138.67471 C 66.78299000000001 138.25613 67.19160000000001 137.47845 67.82098 136.92843 C 68.22455000000001 136.57559999999998 68.43868 137.06452 68.64231000000001 136.44482 C 68.79112 135.99174 68.03790000000001 134.92839999999998 67.82098 134.54876 C 67.59576000000001 134.15508 67.8362 133.98935999999998 67.32740000000001 133.77884999999998 C 66.66535000000002 133.50508999999997 66.16306000000002 134.15657 65.56943000000001 133.38133 L 65.56943000000001 132.94989999999999 C 63.85950000000001 132.9474 60.78588000000001 132.91287999999997 60.362060000000014 135.10687 C 60.20010000000001 135.94484 60.225670000000015 137.43619999999999 60.815730000000016 138.03913999999997 C 61.32970000000002 138.56432999999998 62.305180000000014 138.91427999999996 62.97121000000001 138.99938999999998 L 62.97123 138.99937 z M 67.70573 139.83136 C 67.27983 141.18115 68.01162000000001 141.96614 69.23212000000001 142.01343 C 70.62389 142.06728999999999 71.43769 141.9982 72.68789000000001 142.69306 C 74.50141 143.70113 76.74586000000001 144.40928 78.10216000000001 142.34461 C 78.56471 141.64045 78.48654 141.10711999999998 79.36418000000002 140.80404 C 79.94198000000002 140.60439 80.52453000000001 140.80803999999998 81.10810000000002 140.62742999999998 C 82.06112000000002 140.33261 81.89886000000003 140.07106 81.75020000000002 139.42504999999997 C 81.64173000000002 138.95341999999997 81.62326000000002 138.26345999999998 81.45732000000002 137.76890999999998 C 81.33821000000002 137.74430999999998 81.21895000000002 137.71978 81.09970000000003 137.69523999999998 L 80.23697000000003 136.83243 C 78.45079000000003 136.83243 77.02592000000003 137.02830999999998 75.27506000000002 137.49564999999998 C 73.53261000000002 137.96077999999997 71.82786000000003 137.5804 70.10064000000003 138.18036999999998 C 69.20688000000003 138.49076 68.02747000000002 138.81123 67.70576000000003 139.83132999999998 L 67.70573 139.83136 z M 77.43272 184.71707 C 76.85801000000001 184.7168 76.27696 184.74234 75.70299 184.72127 C 74.86421 184.69062 74.94888 184.53426000000002 74.31566 184.16741000000002 C 73.38053 183.62572000000003 69.82027 182.61686000000003 68.82114999999999 183.83675000000002 C 68.74887999999999 183.74179000000004 68.66301999999999 183.65602 68.55691999999999 183.58554000000004 C 68.54288 183.75738000000004 68.5816 183.93783000000005 68.65474999999999 184.12094000000005 C 68.63257999999999 184.17561000000003 68.60376 184.22475000000006 68.58927999999999 184.28572000000005 L 68.73025999999999 184.28572000000005 C 69.14817999999998 185.10588000000004 70.21320999999999 185.95160000000004 70.74623999999999 186.34515000000005 C 71.95667999999999 187.23906000000005 73.09102999999999 187.34877000000006 74.42426999999999 187.72494000000006 C 74.89272 187.85704000000007 75.20572 188.09451000000007 75.69102 188.18858000000006 C 76.3767 188.32150000000007 76.82034 187.91821000000004 77.43271999999999 187.77710000000005 C 78.19688 187.60118000000006 78.56145 187.75198000000006 79.17442999999999 187.10588000000004 C 79.67037999999998 186.58333000000005 79.78978 185.91997000000003 80.62382999999998 185.93903000000003 C 80.81091 184.36314 78.33875 184.7175 77.43272 184.71707 z" stroke-linecap="round" />
</g>
</g>
</g>
<g transform="matrix(0.35515484922793816 0 0 0.35515484922793816 823.7540875116788 285.6052241473572)" id="shape-ca534311-c412-4d36-a89e-6373a9dbd291"  >
<g style=""  paint-order="stroke"   >
		<g transform="matrix(1 0 0 1 0 -0.00000500000000158707)" id="path-02_00000003093006272720080000000007187088398247055747_"  >
<linearGradient id="SVGID_9_109651" gradientUnits="userSpaceOnUse" gradientTransform="matrix(1 0 0 1 0.00004473239769708925 0.00000841396386874749)"  x1="0" y1="0" x2="0" y2="209">
<stop offset="0%" style="stop-color:rgb(91,36,122);stop-opacity: 1"/>
<stop offset="100%" style="stop-color:rgb(27,206,223);stop-opacity: 1"/>
</linearGradient>
<path style="stroke: none; stroke-width: 1; stroke-dasharray: none; stroke-linecap: butt; stroke-dashoffset: 0; stroke-linejoin: miter; stroke-miterlimit: 4; fill: url(#SVGID_9_109651); fill-rule: nonzero; opacity: 1;"  paint-order="stroke"  transform=" translate(-125.98744360345476, -104.39313928876626)" d="M 225.76636 119.11903 C 218.91084999999998 123.99958 222.31981 113.04048999999999 223.01575 110.23281999999999 C 224.41129 104.57634999999999 225.83315 98.20877999999999 224.22573 92.44509 C 223.74493 90.73026999999999 222.63035 89.10079999999999 220.97321 88.44726999999999 C 219.98586 88.05953999999998 218.87587 88.05259 217.8292 88.25863999999999 C 209.652 89.89061999999998 204.66395 104.78929 201.61639 111.38283999999999 C 197.34665999999999 120.65303999999999 193.33518999999998 130.21479 186.8764 138.23212999999998 C 184.75997999999998 140.86075 180.97268 142.69316999999998 178.75093999999999 138.9286 C 178.03185 137.71316 177.92061999999999 136.24397 178.00752999999997 134.84434 C 178.43858999999998 127.46269999999998 182.14132999999998 119.54100999999999 184.43562999999997 112.55676 C 186.91517999999996 105.01243 189.35701999999998 97.4549 191.13109999999998 89.71673 C 192.63547999999997 83.11304 195.52391999999998 74.42989 192.64498999999998 67.8188 C 188.78347999999997 58.988929999999996 176.06694 63.27106 169.59185999999997 66.36697 C 168.74154999999996 66.76883 167.87470999999996 67.21791999999999 166.99793999999997 67.69521999999999 C 166.59311999999997 67.91367 166.19768999999997 68.13565999999999 165.81499999999997 68.35150999999999 C 165.61728999999997 68.46238 165.40688999999998 68.57941 165.21857999999997 68.69369999999999 C 155.61615999999998 74.34025999999999 145.25060999999997 83.92581999999999 144.50898999999998 94.80067 C 144.22216999999998 99.04372 145.85941999999997 103.63146 149.04604999999998 106.51516 C 154.41074999999998 111.41060999999999 162.83017999999998 108.57092 168.00296999999998 114.25729 C 170.89714999999998 117.46249999999999 171.62126999999998 122.20756 170.72133999999997 126.41645 C 169.17938999999996 133.64248 164.31673999999998 140.00382 159.51853999999997 145.42362 C 154.76552999999998 150.77463 149.52886999999998 156.11532 142.75590999999997 158.82111 C 141.21949999999998 159.42775 137.23027999999996 159.5053 137.53689999999997 156.93224 C 137.60943999999998 156.30066 137.94340999999997 155.73957000000001 138.28024999999997 155.20055000000002 C 142.10988999999998 148.97582000000003 147.39795999999996 143.36705 150.38080999999997 136.65555 C 151.24065999999996 134.74217000000002 151.40058999999997 132.25542000000002 149.93958999999998 130.73808 C 149.18245 129.9648 148.10965 129.57899 147.04395999999997 129.35463 C 140.36628999999996 127.94088999999998 134.22141999999997 132.45546 129.87795999999997 137.05972 C 118.89046999999998 148.72644 105.87194999999997 169.04796 93.81238999999997 179.63015000000001 C 91.53108999999996 181.63972 87.52769999999997 183.33295 86.03611999999997 180.23704 C 85.63097999999997 179.39613 85.60151999999997 178.38992000000002 85.87407999999996 177.48948000000001 C 87.27689999999997 172.63010000000003 89.33765999999996 167.97976000000003 91.69624999999996 163.50767000000002 C 95.72416999999996 155.83743 100.72731999999996 148.74116 104.97479999999996 141.20059000000003 C 107.03337999999997 137.55598000000003 108.93204999999996 133.82338000000004 110.33745999999996 129.86549000000002 C 111.54473999999996 126.47393000000002 113.58367999999996 123.30960000000002 113.05371999999997 119.55423000000002 C 111.96879999999997 111.81194000000002 100.22060999999997 115.62746000000001 95.46451999999996 117.74607000000002 C 95.26394999999997 117.83499000000002 95.06008999999996 117.93310000000001 94.84354999999996 118.03738000000001 C 94.51227999999996 118.19698000000001 94.18106999999996 118.35659000000001 93.85924999999996 118.51950000000001 C 84.46231999999996 123.30579 77.69014999999996 131.12856 75.71665999999996 141.67864 C 74.19664999999996 149.78098 75.71345999999996 151.80524 74.61061999999997 159.9265 C 73.55669999999996 167.72591 70.01762999999997 175.0585 65.32104999999997 181.3085 C 60.52117999999997 187.70241000000001 54.25106999999997 193.42317 48.05486999999997 198.41766 C 46.64970999999997 199.55774000000002 45.15301999999997 200.68701000000001 43.40414999999997 201.11357 C 40.261789999999976 201.88972 40.679089999999974 198.45479 41.60083999999997 196.63716000000002 C 44.75321999999997 190.44055000000003 48.39845999999997 184.50088000000002 52.49102999999997 178.88733000000002 C 53.669119999999964 177.27574 60.96889999999996 167.12660000000002 55.30664999999997 166.98966000000001 C 52.50565999999997 166.91065 49.08417999999997 170.75677000000002 47.35734999999997 172.48345 C 41.130329999999965 178.71717 35.64237999999997 185.44268 30.31555999999997 192.40427 C 19.40696999999997 206.66248 12.117689999999968 209.20893 11.21382999999997 208.73389 C 8.602829999999969 207.35453 15.03564999999997 195.50385 16.05881999999997 193.45684 C 17.576759999999968 190.44938 19.248589999999968 187.51682 21.033219999999968 184.65552 C 21.039789999999968 184.63674 21.05253999999997 184.63058999999998 21.059149999999967 184.61169999999998 C 22.361159999999966 182.52447999999998 23.72596999999997 180.46998 25.121929999999967 178.44729999999998 C 29.30319999999997 172.39855999999997 34.47500999999997 166.30427999999998 35.90276999999997 158.88986999999997 C 37.98038999999997 148.13281999999998 28.27307999999997 135.29851999999997 16.62644999999997 137.79361999999998 C 12.56239999999997 138.66060999999996 9.201499999999971 141.3943 5.71165999999997 143.64861999999997 C 4.4121699999999695 144.48658999999998 2.72428999999997 145.28412999999998 1.39183999999997 144.48966999999996 C -2.92833000000003 141.90876999999995 4.00442999999997 134.56580999999997 6.02196999999997 132.85595999999995 C 9.851919999999971 129.62937999999994 14.585279999999969 127.54522999999995 19.35613999999997 126.14148999999995 C 23.07234999999997 125.05753999999995 26.929789999999972 124.47843999999995 30.799069999999972 124.38041999999994 C 32.741549999999975 124.33931999999994 34.68870999999997 124.40590999999995 36.624609999999976 124.59567999999994 C 37.894129999999976 124.72179999999994 40.74171999999997 124.63708999999994 41.78064999999997 125.39241999999994 C 35.99189999999997 121.16441999999995 33.38491999999997 113.04874999999994 35.60366999999997 106.25015999999994 C 37.82916999999997 99.43245999999994 44.72755999999997 94.42930999999993 51.89702999999997 94.43667999999994 C 59.06048999999997 94.43108999999994 65.95751999999997 99.42818999999994 68.18187999999998 106.24473999999994 C 70.40964999999998 113.05174999999994 67.79845999999998 121.15396999999993 62.01506999999998 125.39224999999993 C 62.16985999999998 125.40409999999993 63.47331999999998 125.37254999999993 66.44529999999997 124.35678999999993 C 66.45805999999997 124.35064999999993 66.47074999999998 124.34447999999993 66.50239999999998 124.34494999999993 C 71.83002999999998 122.50030999999993 82.52085999999998 117.46744999999993 101.51268999999998 103.66329999999992 C 107.27019999999997 99.46885999999992 113.81420999999997 94.47936999999992 121.19794999999998 88.51258999999992 C 118.18153999999998 88.89828999999992 115.03228999999997 88.63383999999992 111.96448999999998 87.56093999999992 C 101.15639999999999 83.78099999999992 95.61212999999998 71.73533999999992 99.93196999999998 60.98901999999992 C 103.76267999999997 51.45935999999992 114.51578999999998 46.27872999999992 124.35573999999998 49.222199999999916 C 135.44877 52.55088999999992 141.40728 64.38125999999991 137.62732 75.18940999999992 C 137.40286 75.83122999999992 137.15341 76.45368999999992 136.88214 77.04758999999993 C 140.00206 74.79087999999993 143.18463 72.56693999999993 146.373 70.38719999999992 C 162.32019 59.533249999999924 178.18722 47.24245999999992 196.37232999999998 40.34936999999992 C 196.49318999999997 40.30680999999992 196.62014999999997 40.27696999999992 196.73143 40.231319999999926 C 193.02911 39.942879999999924 189.27704 38.736439999999924 185.82372999999998 35.91839999999993 C 179.46410999999998 30.71753999999993 176.56965999999997 22.151649999999925 178.96520999999998 14.302479999999928 C 182.50048999999999 2.7095199999999284 195.36757999999998 -3.214690000000072 206.54359 1.785119999999928 C 215.05807 5.610479999999928 219.9038 15.049149999999928 217.98570999999998 24.198919999999926 C 216.85907999999998 29.631559999999926 213.72459999999998 33.959539999999926 209.61946999999998 36.76141999999993 C 222.96796999999998 34.45892999999993 236.96429999999998 35.84724999999993 249.56360999999998 40.83635999999993 C 251.88096 41.75285999999993 252.69576999999998 44.63327999999993 251.26493 46.66470999999993 C 250.23408 48.15812999999993 248.23461 48.63488999999993 246.53270999999998 48.01846999999993 C 243.83021 47.05210999999993 241.09798999999998 46.17078999999993 238.29460999999998 45.61401999999993 C 236.01790999999997 45.15685999999993 233.15505 44.77015999999993 230.51332999999997 45.05384999999993 C 227.59637999999995 45.33672999999993 224.92689999999996 46.42673999999993 223.52457999999996 49.10360999999993 C 221.43573999999995 53.07696999999993 226.45569999999995 57.11020999999993 229.03437999999997 59.39991999999993 C 237.47283999999996 66.89595999999993 245.05816999999996 76.49820999999993 245.03638999999998 88.31358999999993 C 245.01692 101.69738 236.10837 111.78189 225.76636 119.11903 z" stroke-linecap="round" />
</g>
		<g transform="matrix(1 0 0 1 1.8282882420284636 22.526738978848584)" id="path-01_00000161614776140454130810000006043778447384611728_"  >
<path style="stroke: none; stroke-width: 1; stroke-dasharray: none; stroke-linecap: butt; stroke-dashoffset: 0; stroke-linejoin: miter; stroke-miterlimit: 4; fill: rgb(40,127,212); fill-rule: nonzero; opacity: 1;"  paint-order="stroke"  transform=" translate(-127.81573184548323, -126.91988326761485)" d="M 93.85922 118.51951 C 84.46229 123.30579999999999 77.69012 131.12857 75.71663 141.67865 C 74.19662 149.78099 75.71342999999999 151.80525 74.61059 159.92651 C 73.55667 167.72592 70.0176 175.05851 65.32102 181.30851 C 60.521150000000006 187.70242000000002 54.25104 193.42318 48.054840000000006 198.41767000000002 C 46.649680000000004 199.55775000000003 45.15299 200.68702000000002 43.404120000000006 201.11358 C 40.26176000000001 201.88973000000001 40.67906000000001 198.4548 41.60081 196.63717000000003 C 44.753190000000004 190.44056000000003 48.398430000000005 184.50089000000003 52.491 178.88734000000002 C 53.66909 177.27575000000002 60.968869999999995 167.12661000000003 55.30662 166.98967000000002 C 52.505630000000004 166.91066 49.08415 170.75678000000002 47.35732 172.48346 C 41.1303 178.71718 35.64235 185.44269 30.315530000000003 192.40428 C 19.406940000000002 206.66249 12.11766 209.20893999999998 11.213800000000003 208.7339 C 8.602800000000002 207.35454000000001 15.035620000000003 195.50386 16.058790000000002 193.45685 C 17.57673 190.44939 19.24856 187.51683 21.03319 184.65553 C 20.938850000000002 184.83449 20.84446 185.01344 20.75346 185.18283 C 15.63672 194.84544 20.18655 200.52577 35.18712 180.04999999999998 C 50.34572 159.36453 58.92024 135.84682 93.85922 118.51951 z M 168.00296 114.25729 C 162.83017 108.57091 154.41074 111.41060999999999 149.04604 106.51516 C 145.85941 103.63145999999999 144.22216 99.04372 144.50898 94.80067 C 145.25060000000002 83.92581 155.61616 74.34026 165.21857 68.69369999999999 C 153.42047 75.25675999999999 142.7468 78.90777 136.55336 107.40061 C 130.25485 136.3758 106.22744 153.88533999999999 114.42632 140.43821 C 122.5767 127.0693 130.49321 100.98012 95.4645 117.74609 C 100.22059 115.62747999999999 111.96878000000001 111.81196 113.0537 119.55425 C 113.58366000000001 123.30960999999999 111.54472000000001 126.47394 110.33744 129.86551 C 108.93204 133.8234 107.03336 137.556 104.97478 141.20061 C 100.72730999999999 148.74118 95.72415 155.83745000000002 91.69623 163.50769000000003 C 89.33765 167.97978000000003 87.27689 172.63013000000004 85.87406 177.48950000000002 C 85.6015 178.38994000000002 85.63096 179.39615000000003 86.0361 180.23706 C 87.52768 183.33298000000002 91.53107 181.63974000000002 93.81237 179.63017000000002 C 105.87193 169.04797000000002 118.89045 148.72645000000003 129.87794 137.05974000000003 C 134.2214 132.45548000000002 140.36627 127.94090000000003 147.04394 129.35465000000002 C 148.10962999999998 129.57902 149.18242999999998 129.96482000000003 149.93957 130.73810000000003 C 151.40057000000002 132.25543000000002 151.24064 134.74219000000002 150.38079 136.65557000000004 C 147.39793999999998 143.36707000000004 142.10987 148.97584000000003 138.28023 155.20057000000003 C 137.94339 155.73959000000002 137.60942 156.30068000000003 137.53688 156.93226 C 137.23024999999998 159.50532 141.21948 159.42777 142.75589 158.82113 C 149.52885 156.11533 154.76551999999998 150.77465 159.51852 145.42364 C 164.31672 140.00384 169.17937999999998 133.6425 170.72132 126.41647 C 171.62126 122.20756 170.89714 117.46249 168.00296 114.25729 z M 245.03638 88.31358 C 245.05815 76.4982 237.47283000000002 66.89595 229.03437000000002 59.399910000000006 C 226.45570000000004 57.110200000000006 221.43574 53.07696000000001 223.52457 49.10360000000001 C 224.92690000000002 46.42672000000001 227.59638 45.33672000000001 230.51332000000002 45.05384000000001 C 226.66141000000002 45.04155000000001 221.44623 45.26218000000001 216.54266 60.222080000000005 C 211.59662 75.27316 201.31810000000002 95.51476 200.54408 73.49470000000001 C 199.79142000000002 52.17087000000001 179.22264 60.94216000000001 166.99792000000002 67.69522 C 167.87469000000002 67.21792 168.74153 66.76882 169.59184000000002 66.36697000000001 C 176.06692 63.271060000000006 188.78346000000002 58.98893000000001 192.64497000000003 67.81880000000001 C 195.52391000000003 74.42989000000001 192.63546000000002 83.11304000000001 191.13108000000003 89.71673000000001 C 189.35700000000003 97.45490000000001 186.91517000000002 105.01243000000001 184.43561000000003 112.55676000000001 C 182.14131000000003 119.54101000000001 178.43857000000003 127.46270000000001 178.00751000000002 134.84434000000002 C 177.92060000000004 136.24397000000002 178.03183 137.71316000000002 178.75092000000004 138.92860000000002 C 180.97266000000005 142.69317 184.75995000000003 140.86074000000002 186.87638000000004 138.23213 C 193.33517000000003 130.21480000000003 197.34664000000004 120.65304 201.61637000000005 111.38284000000002 C 204.66393000000005 104.78929000000002 209.65198000000004 89.89062000000001 217.82918000000004 88.25864000000001 C 218.87586000000005 88.05259000000001 219.98584000000002 88.05954000000001 220.97319000000005 88.44727000000002 C 222.63033000000004 89.10080000000002 223.74490000000006 90.73027000000002 224.22571000000005 92.44509000000002 C 225.83313000000004 98.20878000000002 224.41127000000006 104.57635000000002 223.01573000000005 110.23282000000002 C 222.31979000000004 113.04048000000002 218.91083000000006 123.99958000000002 225.76634000000004 119.11903000000002 C 236.10837 111.78189 245.01692 101.69738 245.03638 88.31358 z" stroke-linecap="round" />
</g>
</g>
</g>
</svg>